{"title":"Amaanat 1994 DvDrip x264 ~ Musical | Action ~ [RdY]","uid":6712295,"size":1445075200,"categoryP":"video","categoryS":"movies","magnet":"?xt=urn:btih:0a8eb5b9f9ed1edf531ee109a0d544af1c8dfe9a&amp;dn=Amaanat+1994+DvDrip+x264+%7E+Musical+%7C+Action+%7E+%5BRdY%5D&amp;tr=udp%3A%2F%2Ftracker.openbittorrent.com%3A80&amp;tr=udp%3A%2F%2Fopen.demonii.com%3A1337&amp;tr=udp%3A%2F%2Ftracker.coppersurfer.tk%3A6969&amp;tr=udp%3A%2F%2Fexodus.desync.com%3A6969","seeders":0,"leechers":1,"uploader":"ilyas2000pk","files":-1,"time":1317402211,"description":"Color\nC\n\nRelease Date\nOctober 14, 1994\n\nLanguage\nHindi\n\nGenre\nAction  /  Musical\n\nProducer\nRoman Sippy\n\nExecutive Producer / Co-Producer\nPunkej Kharbanda\n\nDirector\nRaj N Sippy\n\nStar Cast\nSanjay Dutt...... Vijay\nAkshay Kumar...... Amar\nKanchan...... Radha\nHira...... Gita\nKiran Kumar...... Rajeshwar/Lankeshwar\nGulshan Grover...... Niranjan\nMukesh Khanna...... Agarwal Seth\nFarheen...... Bijli\nPaintal\nMac Mohan\nGhanshyam\nNeelam Mehra\nNavneet Nishan...... Yasmin\nSatyen Kappu\nRam Mohan\nVikas Anand\nShashi Kiran\nMadhu Malhotra\nRazzak Khan\nShamshuddin\nSudhir Dalvi\n\nCinematography\nS Pappu\n\nChoreography\nChinni Prakash\nRekha Chinni Prakash\nSaroj Khan\n\nAction\nMoses\nSham Kaushal\nAmin Gani\n\nArt\nR Verman\n\nEditor\nAshok Honda\n\nScreenplay\nSachin Bhowmik\n\nDialogue\nAnwar Khan\n\nMedia Relations\nAjit Ghosh\n\nStory / Writer\nSachin Bhowmik\n\n\n\nRipper                           : Rahul (XMR)\nComplete name                    : Amaanat 1994 DvDrip x264 ~ Musical | Action ~ [RdY]\nFormat                           : Matroska\nFile size                        : 1.35 GiB\nDuration                         : 2h 38mn\nOverall bit rate                 : 1 212 Kbps\nEncoded date                     : UTC 2011-09-28 06:14:24\n\n\nVideo\nID                               : 1\nFormat                           : AVC\nFormat/Info                      : Advanced Video Codec\nFormat profile                   : &lt;a class=&quot;__cf_email__&quot; href=&quot;/cdn-cgi/l/email-protection&quot; data-cfemail=&quot;0f476668674f433c213f&quot;&gt;[email&amp;#160;protected]&lt;/a&gt;&lt;script data-cfhash='f9e31' type=&quot;text/javascript&quot;&gt;\n/* &lt;![CDATA[ */!function(){try{var t=&quot;currentScript&quot;in document?document.currentScript:function(){for(var t=document.getElementsByTagName(&quot;script&quot;),e=t.length;e--;)if(t[e].getAttribute(&quot;data-cfhash&quot;))return t[e]}();if(t&amp;&amp;t.previousSibling){var e,r,n,i,c=t.previousSibling,a=c.getAttribute(&quot;data-cfemail&quot;);if(a){for(e=&quot;&quot;,r=parseInt(a.substr(0,2),16),n=2;a.length-n;n+=2)i=parseInt(a.substr(n,2),16)^r,e+=String.fromCharCode(i);e=document.createTextNode(e),c.parentNode.replaceChild(e,c)}t.parentNode.removeChild(t);}}catch(u){}}()/* ]]&gt; */&lt;/script&gt;\nFormat settings, CABAC           : Yes\nFormat settings, ReFrames        : 4 frames\nMuxing mode                      : Header stripping\nCodec ID                         : V_MPEG4/ISO/AVC\nDuration                         : 2h 38mn\nBit rate                         : 987 Kbps\nWidth                            : 720 pixels\nHeight                           : 384 pixels\nDisplay aspect ratio             : 1.875\nFrame rate                       : 23.976 fps\nColor space                      : YUV\nChroma subsampling               : 4.2.0\nBit depth                        : 8 bits\nScan type                        : Progressive\nBits/(Pixel*Frame)               : 0.149\nStream size                      : 1.07 GiB (80%)\nWriting library                  : x264 core 116 r2074 2641b9e\n\n\nAudio\nID                               : 2\nFormat                           : AC-3\nFormat/Info                      : Audio Coding 3\nMode extension                   : CM (complete main)\nMuxing mode                      : Header stripping\nCodec ID                         : A_AC3\nDuration                         : 2h 38mn\nBit rate mode                    : Constant\nBit rate                         : 224 Kbps\nChannel(s)                       : 6 channels\nChannel positions                : Front: L C R, Side: L R, LFE\nSampling rate                    : 48.0 KHz\nBit depth                        : 16 bits\nCompression mode                 : Lossy\nStream size                      : 255 MiB (18%)","torrent":{"xt":"urn:btih:0a8eb5b9f9ed1edf531ee109a0d544af1c8dfe9a","amp;dn":"Amaanat+1994+DvDrip+x264+%7E+Musical+%7C+Action+%7E+%5BRdY%5D","amp;tr":["udp%3A%2F%2Ftracker.openbittorrent.com%3A80","udp%3A%2F%2Fopen.demonii.com%3A1337","udp%3A%2F%2Ftracker.coppersurfer.tk%3A6969","udp%3A%2F%2Fexodus.desync.com%3A6969"],"infoHash":"0a8eb5b9f9ed1edf531ee109a0d544af1c8dfe9a","infoHashBuffer":{"type":"Buffer","data":[10,142,181,185,249,237,30,223,83,30,225,9,160,213,68,175,28,141,254,154]},"announce":[],"urlList":[]}}